HIERARCHY
ROOT Hips
{
	OFFSET 0.000000 89.005402 0.000000
	CHANNELS 6 Xposition Yposition Zposition Xrotation Yrotation Zrotation
	JOINT Spine
	{
		OFFSET 0.116900 10.681000 0.373400
		CHANNELS 3 Xrotation Yrotation Zrotation
		JOINT Spine1
		{
			OFFSET 0.000000 13.840401 0.053500
			CHANNELS 3 Xrotation Yrotation Zrotation
			JOINT Spine2
			{
				OFFSET 0.000000 14.712700 -0.366200
				CHANNELS 3 Xrotation Yrotation Zrotation
				JOINT Neck
				{
					OFFSET 0.000000 35.415497 -3.314200
					CHANNELS 3 Xrotation Yrotation Zrotation
					JOINT Head
					{
						OFFSET 0.000000 16.899200 1.218300
						CHANNELS 3 Xrotation Yrotation Zrotation
						JOINT HeadTop_End
						{
							OFFSET 0.000000 22.206207 2.192500
							CHANNELS 3 Xrotation Yrotation Zrotation
							End Site
							{
								OFFSET 0.000000 22.314178 0.000000
							}
						}
					}
				}
				JOINT LeftShoulder
				{
					OFFSET 12.896400 26.716293 -4.548400
					CHANNELS 3 Xrotation Yrotation Zrotation
					JOINT LeftArm
					{
						OFFSET 19.027000 -4.857010 -1.718400
						CHANNELS 3 Xrotation Yrotation Zrotation
						JOINT LeftForeArm
						{
							OFFSET 24.179897 0.000000 0.000000
							CHANNELS 3 Xrotation Yrotation Zrotation
							JOINT LeftHand
							{
								OFFSET 27.156403 0.000000 0.000000
								CHANNELS 3 Xrotation Yrotation Zrotation
								JOINT LeftHandIndex1
								{
									OFFSET 16.441200 0.000000 0.000000
									CHANNELS 3 Xrotation Yrotation Zrotation
									JOINT LeftHandIndex2
									{
										OFFSET 4.821899 0.000000 0.000000
										CHANNELS 3 Xrotation Yrotation Zrotation
										JOINT LeftHandIndex3
										{
											OFFSET 6.386497 0.000000 0.000000
											CHANNELS 3 Xrotation Yrotation Zrotation
											JOINT LeftHandIndex4
											{
												OFFSET 5.188988 0.000000 0.000000
												CHANNELS 3 Xrotation Yrotation Zrotation
												End Site
												{
													OFFSET -0.178703 5.185913 0.000177
												}
											}
										}
									}
								}
								JOINT LeftHandThumb1
								{
									OFFSET 6.534897 -5.032593 5.900300
									CHANNELS 3 Xrotation Yrotation Zrotation
									JOINT LeftHandThumb2
									{
										OFFSET 3.818176 -2.204422 2.204423
										CHANNELS 3 Xrotation Yrotation Zrotation
										JOINT LeftHandThumb3
										{
											OFFSET 3.252098 -1.877594 1.877601
											CHANNELS 3 Xrotation Yrotation Zrotation
											JOINT LeftHandThumb4
											{
												OFFSET 5.251778 -3.032120 3.032117
												CHANNELS 3 Xrotation Yrotation Zrotation
												End Site
												{
													OFFSET 0.000023 6.780014 0.000000
												}
											}
										}
									}
								}
							}
						}
					}
				}
				JOINT RightShoulder
				{
					OFFSET -12.896300 26.716293 -4.548400
					CHANNELS 3 Xrotation Yrotation Zrotation
					JOINT RightArm
					{
						OFFSET -19.027000 -4.857010 -1.718400
						CHANNELS 3 Xrotation Yrotation Zrotation
						JOINT RightForeArm
						{
							OFFSET -24.179897 0.000000 0.000000
							CHANNELS 3 Xrotation Yrotation Zrotation
							JOINT RightHand
							{
								OFFSET -27.156403 0.000000 0.000000
								CHANNELS 3 Xrotation Yrotation Zrotation
								JOINT RightHandThumb1
								{
									OFFSET -6.591202 -4.852203 5.988100
									CHANNELS 3 Xrotation Yrotation Zrotation
									JOINT RightHandThumb2
									{
										OFFSET -3.818176 -2.204422 2.204423
										CHANNELS 3 Xrotation Yrotation Zrotation
										JOINT RightHandThumb3
										{
											OFFSET -3.252098 -1.877594 1.877601
											CHANNELS 3 Xrotation Yrotation Zrotation
											JOINT RightHandThumb4
											{
												OFFSET -5.251778 -3.032120 3.032117
												CHANNELS 3 Xrotation Yrotation Zrotation
												End Site
												{
													OFFSET -0.000023 6.780014 0.000000
												}
											}
										}
									}
								}
								JOINT RightHandIndex1
								{
									OFFSET -16.029404 0.000000 0.000000
									CHANNELS 3 Xrotation Yrotation Zrotation
									JOINT RightHandIndex2
									{
										OFFSET -5.213303 0.000000 0.000000
										CHANNELS 3 Xrotation Yrotation Zrotation
										JOINT RightHandIndex3
										{
											OFFSET -6.386528 0.000000 0.000000
											CHANNELS 3 Xrotation Yrotation Zrotation
											JOINT RightHandIndex4
											{
												OFFSET -5.189026 0.000000 0.000000
												CHANNELS 3 Xrotation Yrotation Zrotation
												End Site
												{
													OFFSET 0.236702 5.183624 0.001972
												}
											}
										}
									}
								}
							}
						}
					}
				}
			}
		}
	}
	JOINT LeftUpLeg
	{
		OFFSET 14.073000 -7.904099 -1.463000
		CHANNELS 3 Xrotation Yrotation Zrotation
		JOINT LeftLeg
		{
			OFFSET -0.109806 -34.073280 4.093200
			CHANNELS 3 Xrotation Yrotation Zrotation
			JOINT LeftFoot
			{
				OFFSET 0.109806 -29.899420 -6.319000
				CHANNELS 3 Xrotation Yrotation Zrotation
				JOINT LeftToeBase
				{
					OFFSET 1.551100 -14.988700 20.535801
					CHANNELS 3 Xrotation Yrotation Zrotation
					JOINT LeftToe_End
					{
						OFFSET 0.221200 0.570800 13.248301
						CHANNELS 3 Xrotation Yrotation Zrotation
						End Site
						{
							OFFSET 0.000000 13.262435 0.000000
						}
					}
				}
			}
		}
	}
	JOINT RightUpLeg
	{
		OFFSET -13.839300 -7.904099 -1.463000
		CHANNELS 3 Xrotation Yrotation Zrotation
		JOINT RightLeg
		{
			OFFSET 0.109694 -34.073219 4.093300
			CHANNELS 3 Xrotation Yrotation Zrotation
			JOINT RightFoot
			{
				OFFSET -0.109694 -29.899384 -6.319200
				CHANNELS 3 Xrotation Yrotation Zrotation
				JOINT RightToeBase
				{
					OFFSET -1.551100 -14.988700 20.535801
					CHANNELS 3 Xrotation Yrotation Zrotation
					JOINT RightToe_End
					{
						OFFSET -0.221200 0.570900 13.248299
						CHANNELS 3 Xrotation Yrotation Zrotation
						End Site
						{
							OFFSET 0.000000 13.262440 0.000000
						}
					}
				}
			}
		}
	}
}
MOTION
Frames: 8
Frame Time: 0.033333
6.842350 85.863289 23.421001 1.406328 15.385459 -1.554260 8.708610 -1.385888 1.503981 1.704497 -0.434065 0.125959 1.702684 -0.423728 0.128054 -0.336335 -1.022192 -0.765774 -8.658670 -12.506414 -4.505890 0.000000 0.000000 0.000000 0.744661 -7.546080 -7.303508 -0.060969 -8.282572 -70.313929 -0.000004 -19.468228 -0.000004 -11.183177 -10.440785 10.419046 0.314854 3.013091 1.455628 0.128097 1.913892 -11.185343 -0.021577 -0.131021 -0.799710 -0.000000 0.000000 -0.000000 15.887836 -8.797606 9.191546 -2.512872 22.665175 -3.441137 -0.530643 -0.983710 -2.331244 0.000000 0.000000 -0.000001 -1.724029 12.464726 13.338334 13.607383 31.436011 33.132995 -0.000032 67.093167 0.000030 -28.213756 -3.121683 -18.250598 17.522181 5.328905 -9.360903 3.988792 -39.363104 3.295181 -0.019437 -0.493924 2.609864 -0.000000 -0.000001 -0.000000 1.337551 -1.685948 -24.516192 5.085487 -6.514312 82.988800 3.537133 -5.534928 79.762655 -0.000002 -0.000001 0.000001 -12.011348 13.331915 14.110269 33.313264 0.457366 4.199746 -11.908915 -7.278524 -13.193790 -13.292446 -0.000011 -0.000001 -0.000000 0.000001 -0.000000 -18.534217 -1.859042 3.298540 16.930024 3.998267 2.269253 0.495525 0.325379 -4.762394 -0.000072 -0.000003 -0.000001 -0.000000 -0.000000 0.000000 
6.841988 85.849953 22.973324 0.962489 15.759652 -1.631167 8.466837 -1.065525 1.837201 1.681068 -0.357255 0.168743 1.679398 -0.350444 0.170961 -0.535303 -0.987663 -0.622413 -8.789709 -11.815075 -3.850049 -0.000000 -0.000000 0.000001 0.727782 -7.662826 -7.344767 -0.180333 -9.929775 -69.759393 -0.000005 -18.882487 -0.000031 -6.123194 -9.949416 10.512949 0.311468 3.183067 1.554695 0.126518 1.905880 -11.104458 -0.021384 -0.139219 -0.718861 -0.000000 -0.000000 -0.000001 16.055229 -8.995632 8.868061 -2.420222 22.919089 -3.423656 -0.459784 -0.725612 -2.275652 0.000001 0.000000 0.000003 -1.582885 11.695503 12.986899 11.935111 31.307275 34.620026 0.000042 67.071843 -0.000044 -28.211550 -4.976069 -18.550886 17.522178 5.328883 -9.360919 3.988787 -39.363073 3.295177 -0.019439 -0.493950 2.609842 -0.000002 -0.000000 -0.000000 1.341276 -1.690553 -24.516220 5.085482 -6.514314 82.988793 3.537147 -5.534945 79.762662 0.000000 -0.000003 0.000001 -11.947596 13.180571 14.075142 33.326522 0.335859 4.377189 -12.099532 -7.138559 -13.068971 -13.038071 0.000001 -0.000005 0.000000 0.000001 -0.000000 -18.211584 -2.172735 3.167475 16.605867 3.969951 2.533688 0.916819 0.320490 -4.777940 -0.011283 -0.000002 0.000000 0.000000 0.000002 0.000000 
6.825925 85.865997 22.439980 0.519269 16.275325 -1.545084 8.197624 -1.142815 1.988301 1.635847 -0.384701 0.155688 1.634293 -0.379733 0.158461 -0.583949 -0.944582 -0.450207 -8.451942 -11.093634 -3.210998 -0.000000 0.000000 -0.000000 0.720732 -7.942505 -7.277658 0.150656 -10.922675 -69.367476 0.000001 -19.222623 0.000016 -4.804630 -10.295751 11.111935 0.307634 3.331355 1.640583 0.125156 1.898941 -11.034504 -0.021209 -0.146310 -0.648962 0.000000 -0.000000 -0.000000 16.201439 -9.169262 8.587249 -2.339141 23.141104 -3.408696 -0.398039 -0.499872 -2.227277 0.000000 0.000000 0.000002 -1.505914 11.062710 12.993074 8.410684 32.300610 36.971804 0.000017 62.131144 -0.000015 -27.026039 -2.550763 -14.458300 17.522186 5.328894 -9.360910 3.988775 -39.363073 3.295161 -0.019440 -0.493954 2.609865 -0.000004 0.000001 -0.000002 1.345454 -1.695637 -24.516220 5.085483 -6.514304 82.988806 3.537140 -5.534940 79.762662 -0.000001 -0.000002 0.000000 -11.850577 12.935376 13.676263 33.151348 0.092643 4.632337 -12.163076 -7.081311 -12.790837 -12.599927 -0.000008 0.000000 0.000000 -0.000001 -0.000000 -17.984511 -2.101076 3.045629 16.339698 3.470730 2.383895 1.346369 0.269817 -4.443849 -0.008815 -0.000002 -0.000000 0.000000 -0.000000 0.000000 
6.788300 85.878517 21.813688 0.065073 16.738632 -1.329718 7.911050 -1.396917 1.996155 1.567008 -0.456500 0.122514 1.565575 -0.452828 0.125954 -0.532060 -0.908812 -0.335520 -7.826396 -10.672885 -2.629757 -0.000000 0.000000 -0.000000 0.715937 -8.103464 -7.159684 0.499997 -11.257170 -69.348290 0.000002 -20.074052 0.000007 -5.841208 -10.451018 11.178923 0.303850 3.456320 1.712521 0.124031 1.893154 -10.976020 -0.021059 -0.152236 -0.590523 0.000000 -0.000001 0.000000 16.324772 -9.316159 8.351599 -2.270602 23.328629 -3.396308 -0.346036 -0.309185 -2.186626 -0.000000 -0.000000 0.000000 -1.492050 10.794524 13.335697 2.581170 35.085821 40.519281 -0.000005 51.163690 0.000006 -25.527130 4.103959 -7.812532 17.522198 5.328902 -9.360919 3.988778 -39.363087 3.295165 -0.019441 -0.493947 2.609857 0.000001 -0.000002 0.000002 1.350117 -1.701224 -24.516238 5.085492 -6.514309 82.988793 3.537134 -5.534948 79.762662 0.000001 -0.000002 0.000000 -11.571425 12.847322 13.104396 32.659905 -0.254497 4.757688 -12.303850 -7.121555 -12.334520 -12.093041 -0.000001 -0.000001 0.000000 -0.000001 -0.000000 -17.900466 -1.912188 2.885115 16.174581 2.935948 2.065160 1.825571 0.214764 -3.995385 -0.008037 -0.000000 -0.000001 0.000000 -0.000000 -0.000000 
6.749162 85.836044 21.087845 -0.332559 17.017964 -1.158014 7.601348 -1.498717 2.042878 1.495241 -0.486379 0.117098 1.493939 -0.484043 0.120731 -0.476919 -0.903997 -0.314621 -7.243487 -10.749986 -2.140041 0.000000 0.000000 -0.000001 0.706636 -8.031972 -7.090125 0.653040 -11.846624 -69.404141 -0.000003 -21.095316 0.000007 -7.191742 -10.330532 10.855985 0.300609 3.556369 1.769790 0.123140 1.888543 -10.929571 -0.020931 -0.156937 -0.544107 0.000000 0.000002 -0.000000 16.423600 -9.434055 8.163717 -2.215602 23.479052 -3.386525 -0.304432 -0.156227 -2.154141 -0.000000 -0.000001 -0.000001 -1.513245 10.948999 13.732220 -5.285084 39.238600 45.167870 -0.000002 36.061029 -0.000002 -24.380808 12.834557 -3.000806 17.522169 5.328891 -9.360904 3.988774 -39.363104 3.295157 -0.019432 -0.493940 2.609858 -0.000003 0.000001 0.000001 1.355251 -1.707353 -24.516262 5.085479 -6.514292 82.988806 3.537128 -5.534928 79.762655 0.000001 0.000001 0.000000 -11.304309 12.898402 12.754725 32.111591 -0.346669 4.651336 -12.574406 -7.122029 -11.963716 -11.751504 -0.000006 -0.000001 0.000000 -0.000001 -0.000000 -18.051194 -1.755622 2.728354 16.118420 2.579391 1.806558 2.384935 0.169625 -3.587445 -0.007697 -0.000009 0.000002 -0.000000 0.000000 -0.000000 
6.725234 85.738144 20.252567 -0.762023 17.130690 -1.108712 7.459032 -1.236233 2.228710 1.471299 -0.418439 0.163834 1.470074 -0.417697 0.167109 -0.486403 -0.943080 -0.336489 -7.139965 -11.219819 -1.789930 0.000000 -0.000000 0.000000 0.692761 -7.806050 -7.114280 0.289443 -13.131227 -69.394900 0.000009 -21.804363 0.000020 -7.292849 -10.060493 10.565072 0.298362 3.629847 1.811570 0.122491 1.885189 -10.895757 -0.020843 -0.160382 -0.510296 0.000000 0.000001 -0.000000 16.496227 -9.520793 8.026113 -2.175107 23.589725 -3.379435 -0.273872 -0.043665 -2.130330 -0.000000 -0.000000 -0.000004 -1.542371 11.433275 13.919103 -12.202333 41.971181 49.455733 -0.000001 24.263234 -0.000003 -23.631432 15.681720 -0.828505 17.739946 4.287251 -9.701088 2.214499 -35.106783 3.114904 -0.836382 2.475844 3.246291 -0.000001 0.000001 0.000000 1.311991 -1.806177 -23.486763 4.159416 -6.323400 73.573739 2.482431 -4.982440 68.293238 0.000001 -0.000002 0.000002 -11.035030 12.957001 12.691169 31.619982 -0.038544 4.450170 -12.994726 -7.035949 -11.819179 -11.481025 -0.000002 0.000001 -0.000000 -0.000002 0.000000 -18.274222 -1.628792 2.613720 16.042171 2.341861 1.659877 3.072760 0.140555 -3.202326 -0.006483 0.000002 -0.000001 -0.000000 0.000002 -0.000000 
6.720051 85.609375 19.315479 -1.281178 17.227197 -1.119634 7.569652 -0.704460 2.516598 1.517345 -0.277432 0.263269 1.516261 -0.278461 0.265950 -0.585761 -0.999938 -0.343668 -7.507864 -11.698955 -1.577084 0.000000 0.000000 0.000000 0.678416 -7.620234 -7.259567 -0.596620 -14.902090 -69.356097 -0.000004 -22.144093 -0.000022 -6.031192 -9.787572 10.504270 0.297533 3.675160 1.837101 0.122096 1.883133 -10.875034 -0.020784 -0.162474 -0.489590 0.000000 -0.000000 0.000000 16.540999 -9.574260 7.941497 -2.150100 23.658056 -3.375103 -0.255031 0.025820 -2.115666 -0.000001 -0.000001 -0.000001 -1.443449 11.507736 13.732138 -14.233645 41.596897 50.837504 0.000006 19.763753 -0.000002 -22.488159 16.519866 -3.159714 18.217465 1.882285 -10.468697 -1.546664 -25.295747 3.280349 -2.864061 9.280904 4.889840 -0.000002 0.000002 -0.000000 1.222334 -2.031053 -21.113747 2.233286 -5.336263 51.919099 0.614073 -3.007763 41.952313 -0.000000 -0.000004 -0.000001 -10.671059 12.948300 12.656127 31.083795 0.425024 4.309875 -13.559200 -6.932994 -11.757820 -10.995959 0.000008 0.000002 -0.000000 -0.000001 -0.000000 -18.450399 -1.542184 2.522385 15.886269 2.134304 1.567206 3.881160 0.110538 -2.815947 -0.003078 -0.000014 -0.000000 -0.000000 -0.000000 0.000000 
6.731173 85.461746 18.301605 -1.679808 17.465219 -1.171004 7.617012 -0.275240 2.847980 1.563626 -0.164335 0.372360 1.562757 -0.166159 0.374432 -0.686527 -1.043783 -0.296423 -7.793797 -11.930163 -1.291361 -0.000000 -0.000000 -0.000000 0.670010 -7.605222 -7.436271 -1.501429 -16.661739 -69.275173 -0.000001 -22.372640 -0.000017 -4.820867 -9.676930 10.359462 0.298516 3.690676 1.845631 0.121961 1.882437 -10.868012 -0.020763 -0.163190 -0.482556 0.000000 -0.000002 0.000002 16.556288 -9.592495 7.912661 -2.141545 23.681405 -3.373628 -0.248598 0.049586 -2.110642 0.000001 0.000002 0.000000 -1.176999 10.901586 13.350781 -13.834155 39.856698 50.799839 -0.000006 18.396327 -0.000010 -21.062034 19.077642 -12.583199 18.710881 -0.802119 -11.299255 -5.505260 -14.409766 4.229594 -5.426174 16.777692 7.067287 0.000001 -0.000001 -0.000001 1.134250 -2.287503 -18.472218 0.691307 -3.498342 27.911291 -0.196168 -0.102157 12.751006 0.000001 0.000001 -0.000002 -10.392514 12.873711 12.404451 30.353361 0.582722 4.247868 -14.275135 -7.005319 -11.471549 -8.318482 0.000010 0.000000 -0.000000 -0.000000 0.000000 -18.771622 -1.437547 2.431361 15.680236 1.785694 1.415156 4.765500 0.063902 -2.367662 -0.000054 -0.000003 -0.000002 -0.000000 0.000000 0.000000 
